<mxfile host="app.diagrams.net" modified="2023-07-15T01:01:49.614Z" agent="Mozilla/5.0 (Macintosh; Intel Mac OS X 10_15_7) AppleWebKit/605.1.15 (KHTML, like Gecko) Version/16.3 Safari/605.1.15" etag="z7iQiZiqL2lkCJgD4_xT" version="21.6.2" type="device">
  <diagram name="Page-1" id="DbehFp9oaAbonwFPMu0J">
    <mxGraphModel dx="1001" dy="826" grid="0" gridSize="10" guides="1" tooltips="1" connect="1" arrows="1" fold="1" page="1" pageScale="1" pageWidth="827" pageHeight="1169" math="0" shadow="0">
      <root>
        <mxCell id="0" />
        <mxCell id="1" parent="0" />
        <mxCell id="rrxpXuPExDhGhWbuOPE0-4" value="&lt;b&gt;Internet&lt;/b&gt;" style="ellipse;shape=cloud;whiteSpace=wrap;html=1;align=center;" vertex="1" parent="1">
          <mxGeometry x="305" y="70" width="100" height="60" as="geometry" />
        </mxCell>
        <mxCell id="rrxpXuPExDhGhWbuOPE0-15" style="edgeStyle=orthogonalEdgeStyle;rounded=0;orthogonalLoop=1;jettySize=auto;html=1;exitX=0;exitY=0.5;exitDx=0;exitDy=0;entryX=1;entryY=0.5;entryDx=0;entryDy=0;" edge="1" parent="1" source="rrxpXuPExDhGhWbuOPE0-5" target="rrxpXuPExDhGhWbuOPE0-14">
          <mxGeometry relative="1" as="geometry" />
        </mxCell>
        <mxCell id="rrxpXuPExDhGhWbuOPE0-17" style="edgeStyle=orthogonalEdgeStyle;rounded=0;orthogonalLoop=1;jettySize=auto;html=1;exitX=1;exitY=0.5;exitDx=0;exitDy=0;entryX=0;entryY=0.5;entryDx=0;entryDy=0;" edge="1" parent="1" source="rrxpXuPExDhGhWbuOPE0-5" target="rrxpXuPExDhGhWbuOPE0-16">
          <mxGeometry relative="1" as="geometry" />
        </mxCell>
        <mxCell id="rrxpXuPExDhGhWbuOPE0-5" value="&lt;b&gt;HOST&lt;/b&gt;&lt;br&gt;&lt;br&gt;macOS M1&lt;br&gt;&lt;br&gt;127.0.0.1&lt;br&gt;192.168.X.Y&lt;br&gt;192.168.105.1" style="whiteSpace=wrap;html=1;align=center;" vertex="1" parent="1">
          <mxGeometry x="320" y="280" width="100" height="120" as="geometry" />
        </mxCell>
        <mxCell id="rrxpXuPExDhGhWbuOPE0-6" value="" style="endArrow=classic;html=1;rounded=0;exitX=0.5;exitY=0;exitDx=0;exitDy=0;entryX=0.5;entryY=1;entryDx=0;entryDy=0;" edge="1" parent="1" source="rrxpXuPExDhGhWbuOPE0-5" target="rrxpXuPExDhGhWbuOPE0-10">
          <mxGeometry width="50" height="50" relative="1" as="geometry">
            <mxPoint x="300" y="180" as="sourcePoint" />
            <mxPoint x="470" y="170" as="targetPoint" />
          </mxGeometry>
        </mxCell>
        <mxCell id="rrxpXuPExDhGhWbuOPE0-13" style="edgeStyle=orthogonalEdgeStyle;rounded=0;orthogonalLoop=1;jettySize=auto;html=1;exitX=1;exitY=0.5;exitDx=0;exitDy=0;entryX=0;entryY=0.5;entryDx=0;entryDy=0;" edge="1" parent="1" source="rrxpXuPExDhGhWbuOPE0-7" target="rrxpXuPExDhGhWbuOPE0-14">
          <mxGeometry relative="1" as="geometry">
            <mxPoint x="190" y="340" as="targetPoint" />
            <Array as="points">
              <mxPoint x="170" y="340" />
              <mxPoint x="170" y="341" />
            </Array>
          </mxGeometry>
        </mxCell>
        <mxCell id="rrxpXuPExDhGhWbuOPE0-7" value="&lt;b&gt;DNS, OTHER&lt;/b&gt;&lt;br&gt;&lt;br&gt;OpenDNS&lt;br&gt;&lt;br&gt;127.0.0.1:53" style="whiteSpace=wrap;html=1;align=center;" vertex="1" parent="1">
          <mxGeometry x="30" y="300" width="100" height="80" as="geometry" />
        </mxCell>
        <mxCell id="rrxpXuPExDhGhWbuOPE0-18" style="edgeStyle=orthogonalEdgeStyle;rounded=0;orthogonalLoop=1;jettySize=auto;html=1;exitX=0;exitY=0.5;exitDx=0;exitDy=0;entryX=1;entryY=0.5;entryDx=0;entryDy=0;" edge="1" parent="1" source="rrxpXuPExDhGhWbuOPE0-8" target="rrxpXuPExDhGhWbuOPE0-16">
          <mxGeometry relative="1" as="geometry" />
        </mxCell>
        <mxCell id="rrxpXuPExDhGhWbuOPE0-8" value="&lt;b&gt;DNS&lt;/b&gt;&lt;br&gt;&lt;br&gt;DNSMasq&lt;br&gt;&lt;br&gt;192.168.105.1:53" style="whiteSpace=wrap;html=1;align=center;" vertex="1" parent="1">
          <mxGeometry x="620" y="300" width="100" height="80" as="geometry" />
        </mxCell>
        <mxCell id="rrxpXuPExDhGhWbuOPE0-19" style="edgeStyle=orthogonalEdgeStyle;rounded=0;orthogonalLoop=1;jettySize=auto;html=1;entryX=0.5;entryY=1;entryDx=0;entryDy=0;" edge="1" parent="1" source="rrxpXuPExDhGhWbuOPE0-9" target="rrxpXuPExDhGhWbuOPE0-16">
          <mxGeometry relative="1" as="geometry" />
        </mxCell>
        <mxCell id="rrxpXuPExDhGhWbuOPE0-9" value="&lt;b&gt;K8S NODE&lt;/b&gt;&lt;br&gt;&lt;br&gt;qemu-system-aarch64&lt;br&gt;&lt;br&gt;192.168.105.X&lt;br&gt;:30080&lt;br&gt;:30443&lt;br&gt;:31024&lt;br&gt;:8443" style="whiteSpace=wrap;html=1;align=center;" vertex="1" parent="1">
          <mxGeometry x="470" y="480" width="100" height="160" as="geometry" />
        </mxCell>
        <mxCell id="rrxpXuPExDhGhWbuOPE0-11" style="edgeStyle=orthogonalEdgeStyle;rounded=0;orthogonalLoop=1;jettySize=auto;html=1;exitX=0.5;exitY=0;exitDx=0;exitDy=0;entryX=0.55;entryY=0.95;entryDx=0;entryDy=0;entryPerimeter=0;" edge="1" parent="1" source="rrxpXuPExDhGhWbuOPE0-10" target="rrxpXuPExDhGhWbuOPE0-4">
          <mxGeometry relative="1" as="geometry" />
        </mxCell>
        <mxCell id="rrxpXuPExDhGhWbuOPE0-10" value="&lt;b&gt;ROUTER&lt;/b&gt;&lt;br&gt;&lt;br&gt;192.168.X.1" style="whiteSpace=wrap;html=1;align=center;" vertex="1" parent="1">
          <mxGeometry x="320" y="160" width="100" height="80" as="geometry" />
        </mxCell>
        <mxCell id="rrxpXuPExDhGhWbuOPE0-14" value="&lt;b&gt;INTERFACE&lt;/b&gt;&lt;br&gt;&lt;br&gt;loopback&lt;br&gt;&lt;br&gt;127.0.0.1" style="whiteSpace=wrap;html=1;align=center;" vertex="1" parent="1">
          <mxGeometry x="180" y="300" width="100" height="80" as="geometry" />
        </mxCell>
        <mxCell id="rrxpXuPExDhGhWbuOPE0-16" value="&lt;b&gt;INTERFACE&lt;/b&gt;&lt;br&gt;&lt;br&gt;socket_vmnet&lt;br&gt;&lt;br&gt;192.168.105.0/24" style="whiteSpace=wrap;html=1;align=center;" vertex="1" parent="1">
          <mxGeometry x="470" y="300" width="100" height="80" as="geometry" />
        </mxCell>
      </root>
    </mxGraphModel>
  </diagram>
</mxfile>
